<?xml version="1.0" encoding="UTF-8" standalone="no"?><svg xmlns="http://www.w3.org/2000/svg" xmlns:xlink="http://www.w3.org/1999/xlink" contentScriptType="application/ecmascript" contentStyleType="text/css" height="1213px" preserveAspectRatio="none" style="width:1793px;height:1213px;" version="1.1" viewBox="0 0 1793 1213" width="1793px" zoomAndPan="magnify"><defs><filter height="300%" id="fioefbmmh7xjl" width="300%" x="-1" y="-1"><feGaussianBlur result="blurOut" stdDeviation="2.0"/><feColorMatrix in="blurOut" result="blurOut2" type="matrix" values="0 0 0 0 0 0 0 0 0 0 0 0 0 0 0 0 0 0 .4 0"/><feOffset dx="4.0" dy="4.0" in="blurOut2" result="blurOut3"/><feBlend in="SourceGraphic" in2="blurOut3" mode="normal"/></filter></defs><g><rect fill="#FFFFFF" filter="url(#fioefbmmh7xjl)" height="210.7969" style="stroke: #A80036; stroke-width: 1.0;" width="10" x="242" y="109.8594"/><rect fill="#FFFFFF" filter="url(#fioefbmmh7xjl)" height="754.1172" style="stroke: #A80036; stroke-width: 1.0;" width="10" x="242" y="377.7891"/><rect fill="#FFFFFF" filter="url(#fioefbmmh7xjl)" height="113.3984" style="stroke: #A80036; stroke-width: 1.0;" width="10" x="484" y="178.125"/><rect fill="#FFFFFF" filter="url(#fioefbmmh7xjl)" height="40.1328" style="stroke: #A80036; stroke-width: 1.0;" width="10" x="489" y="215.2578"/><rect fill="#FFFFFF" filter="url(#fioefbmmh7xjl)" height="695.8516" style="stroke: #A80036; stroke-width: 1.0;" width="10" x="484" y="406.9219"/><rect fill="#FFFFFF" filter="url(#fioefbmmh7xjl)" height="534.0234" style="stroke: #A80036; stroke-width: 1.0;" width="10" x="952.5" y="510.4844"/><rect fill="#FFFFFF" filter="url(#fioefbmmh7xjl)" height="592.2891" style="stroke: #A80036; stroke-width: 1.0;" width="10" x="1127" y="481.3516"/><rect fill="#FFFFFF" filter="url(#fioefbmmh7xjl)" height="475.7578" style="stroke: #A80036; stroke-width: 1.0;" width="10" x="1269.5" y="539.6172"/><rect fill="#FFFFFF" filter="url(#fioefbmmh7xjl)" height="40.1328" style="stroke: #A80036; stroke-width: 1.0;" width="10" x="1274.5" y="576.75"/><rect fill="#FFFFFF" filter="url(#fioefbmmh7xjl)" height="79.2656" style="stroke: #A80036; stroke-width: 1.0;" width="10" x="1274.5" y="769.5781"/><rect fill="#FFFFFF" filter="url(#fioefbmmh7xjl)" height="79.2656" style="stroke: #A80036; stroke-width: 1.0;" width="10" x="1274.5" y="892.9766"/><rect fill="#FFFFFF" filter="url(#fioefbmmh7xjl)" height="1068.3125" style="stroke: #000000; stroke-width: 2.0;" width="1776" x="6" y="71.5938"/><rect fill="#FFFFFF" filter="url(#fioefbmmh7xjl)" height="348.3594" style="stroke: #000000; stroke-width: 2.0;" width="564" x="1208" y="638.8828"/><line style="stroke: #A80036; stroke-width: 1.0;" x1="247" x2="247" y1="54.5938" y2="328.6563"/><line style="stroke: #A80036; stroke-width: 1.0; stroke-dasharray: 1.0,4.0;" x1="247" x2="247" y1="328.6563" y2="356.6563"/><line style="stroke: #A80036; stroke-width: 1.0;" x1="247" x2="247" y1="356.6563" y2="1156.9063"/><line style="stroke: #A80036; stroke-width: 1.0;" x1="488.5" x2="488.5" y1="54.5938" y2="328.6563"/><line style="stroke: #A80036; stroke-width: 1.0; stroke-dasharray: 1.0,4.0;" x1="488.5" x2="488.5" y1="328.6563" y2="356.6563"/><line style="stroke: #A80036; stroke-width: 1.0;" x1="488.5" x2="488.5" y1="356.6563" y2="1156.9063"/><line style="stroke: #A80036; stroke-width: 1.0;" x1="957" x2="957" y1="447.5703" y2="1156.9063"/><line style="stroke: #A80036; stroke-width: 1.0;" x1="1132" x2="1132" y1="54.5938" y2="328.6563"/><line style="stroke: #A80036; stroke-width: 1.0; stroke-dasharray: 1.0,4.0;" x1="1132" x2="1132" y1="328.6563" y2="356.6563"/><line style="stroke: #A80036; stroke-width: 1.0;" x1="1132" x2="1132" y1="356.6563" y2="1156.9063"/><line style="stroke: #A80036; stroke-width: 1.0;" x1="1274" x2="1274" y1="54.5938" y2="328.6563"/><line style="stroke: #A80036; stroke-width: 1.0; stroke-dasharray: 1.0,4.0;" x1="1274" x2="1274" y1="328.6563" y2="356.6563"/><line style="stroke: #A80036; stroke-width: 1.0;" x1="1274" x2="1274" y1="356.6563" y2="1156.9063"/><line style="stroke: #A80036; stroke-width: 1.0;" x1="1660.5" x2="1660.5" y1="688.6641" y2="1156.9063"/><rect fill="#FEFECE" filter="url(#fioefbmmh7xjl)" height="30.2969" style="stroke: #A80036; stroke-width: 1.5;" width="96" x="197" y="19.2969"/><text fill="#000000" font-family="sans-serif" font-size="14" lengthAdjust="spacingAndGlyphs" textLength="82" x="204" y="39.292">:UMLProject</text><rect fill="#FEFECE" filter="url(#fioefbmmh7xjl)" height="30.2969" style="stroke: #A80036; stroke-width: 1.5;" width="96" x="197" y="1155.9063"/><text fill="#000000" font-family="sans-serif" font-size="14" lengthAdjust="spacingAndGlyphs" textLength="82" x="204" y="1175.9014">:UMLProject</text><rect fill="#FEFECE" filter="url(#fioefbmmh7xjl)" height="46.5938" style="stroke: #A80036; stroke-width: 1.5;" width="121" x="426.5" y="3"/><text fill="#000000" font-family="sans-serif" font-size="14" lengthAdjust="spacingAndGlyphs" textLength="107" x="433.5" y="22.9951">currentDiagram</text><text fill="#000000" font-family="sans-serif" font-size="14" lengthAdjust="spacingAndGlyphs" textLength="98" x="438" y="39.292">:*UMLDiagram</text><rect fill="#FEFECE" filter="url(#fioefbmmh7xjl)" height="46.5938" style="stroke: #A80036; stroke-width: 1.5;" width="121" x="426.5" y="1155.9063"/><text fill="#000000" font-family="sans-serif" font-size="14" lengthAdjust="spacingAndGlyphs" textLength="107" x="433.5" y="1175.9014">currentDiagram</text><text fill="#000000" font-family="sans-serif" font-size="14" lengthAdjust="spacingAndGlyphs" textLength="98" x="438" y="1192.1982">:*UMLDiagram</text><rect fill="#FEFECE" filter="url(#fioefbmmh7xjl)" height="30.2969" style="stroke: #A80036; stroke-width: 1.5;" width="173" x="869" y="1155.9063"/><text fill="#000000" font-family="sans-serif" font-size="14" lengthAdjust="spacingAndGlyphs" textLength="159" x="876" y="1175.9014">assCmd:AddCommand</text><rect fill="#FEFECE" filter="url(#fioefbmmh7xjl)" height="30.2969" style="stroke: #A80036; stroke-width: 1.5;" width="148" x="1056" y="19.2969"/><text fill="#000000" font-family="sans-serif" font-size="14" lengthAdjust="spacingAndGlyphs" textLength="134" x="1063" y="39.292">:commandManager</text><rect fill="#FEFECE" filter="url(#fioefbmmh7xjl)" height="30.2969" style="stroke: #A80036; stroke-width: 1.5;" width="148" x="1056" y="1155.9063"/><text fill="#000000" font-family="sans-serif" font-size="14" lengthAdjust="spacingAndGlyphs" textLength="134" x="1063" y="1175.9014">:commandManager</text><rect fill="#FEFECE" filter="url(#fioefbmmh7xjl)" height="30.2969" style="stroke: #A80036; stroke-width: 1.5;" width="109" x="1218" y="19.2969"/><text fill="#000000" font-family="sans-serif" font-size="14" lengthAdjust="spacingAndGlyphs" textLength="95" x="1225" y="39.292">:Components</text><rect fill="#FEFECE" filter="url(#fioefbmmh7xjl)" height="30.2969" style="stroke: #A80036; stroke-width: 1.5;" width="109" x="1218" y="1155.9063"/><text fill="#000000" font-family="sans-serif" font-size="14" lengthAdjust="spacingAndGlyphs" textLength="95" x="1225" y="1175.9014">:Components</text><rect fill="#FEFECE" filter="url(#fioefbmmh7xjl)" height="30.2969" style="stroke: #A80036; stroke-width: 1.5;" width="122" x="1597.5" y="1155.9063"/><text fill="#000000" font-family="sans-serif" font-size="14" lengthAdjust="spacingAndGlyphs" textLength="108" x="1604.5" y="1175.9014">ass:Association</text><rect fill="#FFFFFF" filter="url(#fioefbmmh7xjl)" height="210.7969" style="stroke: #A80036; stroke-width: 1.0;" width="10" x="242" y="109.8594"/><rect fill="#FFFFFF" filter="url(#fioefbmmh7xjl)" height="754.1172" style="stroke: #A80036; stroke-width: 1.0;" width="10" x="242" y="377.7891"/><rect fill="#FFFFFF" filter="url(#fioefbmmh7xjl)" height="113.3984" style="stroke: #A80036; stroke-width: 1.0;" width="10" x="484" y="178.125"/><rect fill="#FFFFFF" filter="url(#fioefbmmh7xjl)" height="40.1328" style="stroke: #A80036; stroke-width: 1.0;" width="10" x="489" y="215.2578"/><rect fill="#FFFFFF" filter="url(#fioefbmmh7xjl)" height="695.8516" style="stroke: #A80036; stroke-width: 1.0;" width="10" x="484" y="406.9219"/><rect fill="#FFFFFF" filter="url(#fioefbmmh7xjl)" height="534.0234" style="stroke: #A80036; stroke-width: 1.0;" width="10" x="952.5" y="510.4844"/><rect fill="#FFFFFF" filter="url(#fioefbmmh7xjl)" height="592.2891" style="stroke: #A80036; stroke-width: 1.0;" width="10" x="1127" y="481.3516"/><rect fill="#FFFFFF" filter="url(#fioefbmmh7xjl)" height="475.7578" style="stroke: #A80036; stroke-width: 1.0;" width="10" x="1269.5" y="539.6172"/><rect fill="#FFFFFF" filter="url(#fioefbmmh7xjl)" height="40.1328" style="stroke: #A80036; stroke-width: 1.0;" width="10" x="1274.5" y="576.75"/><rect fill="#FFFFFF" filter="url(#fioefbmmh7xjl)" height="79.2656" style="stroke: #A80036; stroke-width: 1.0;" width="10" x="1274.5" y="769.5781"/><rect fill="#FFFFFF" filter="url(#fioefbmmh7xjl)" height="79.2656" style="stroke: #A80036; stroke-width: 1.0;" width="10" x="1274.5" y="892.9766"/><path d="M6,71.5938 L244,71.5938 L244,78.5938 L234,88.5938 L6,88.5938 L6,71.5938 " fill="#FFD700" style="stroke: #000000; stroke-width: 1.0;"/><rect fill="none" height="1068.3125" style="stroke: #000000; stroke-width: 2.0;" width="1776" x="6" y="71.5938"/><text fill="#000000" font-family="sans-serif" font-size="13" font-weight="bold" lengthAdjust="spacingAndGlyphs" textLength="193" x="21" y="84.6606">addAssociationToDiagram</text><polygon fill="#A80036" points="230,105.8594,240,109.8594,230,113.8594,234,109.8594" style="stroke: #A80036; stroke-width: 1.0;"/><line style="stroke: #A80036; stroke-width: 1.0;" x1="3" x2="236" y1="109.8594" y2="109.8594"/><text fill="#000000" font-family="sans-serif" font-size="13" font-weight="bold" lengthAdjust="spacingAndGlyphs" textLength="9" x="10" y="104.7935">1</text><text fill="#000000" font-family="sans-serif" font-size="13" lengthAdjust="spacingAndGlyphs" textLength="170" x="23" y="104.7935">startAddAssociation(point)</text><path d="M131,122.8594 L131,147.8594 L233,147.8594 L233,132.8594 L223,122.8594 L131,122.8594 " fill="#FF0000" filter="url(#fioefbmmh7xjl)" style="stroke: #A80036; stroke-width: 1.0;"/><path d="M223,122.8594 L223,132.8594 L233,132.8594 L223,122.8594 " fill="#FF0000" style="stroke: #A80036; stroke-width: 1.0;"/><text fill="#000000" font-family="sans-serif" font-size="13" lengthAdjust="spacingAndGlyphs" textLength="81" x="137" y="139.9263">by Controller</text><polygon fill="#A80036" points="472,174.125,482,178.125,472,182.125,476,178.125" style="stroke: #A80036; stroke-width: 1.0;"/><line style="stroke: #A80036; stroke-width: 1.0;" x1="252" x2="478" y1="178.125" y2="178.125"/><text fill="#000000" font-family="sans-serif" font-size="13" font-weight="bold" lengthAdjust="spacingAndGlyphs" textLength="9" x="259" y="173.0591">2</text><text fill="#000000" font-family="sans-serif" font-size="13" lengthAdjust="spacingAndGlyphs" textLength="170" x="272" y="173.0591">startAddAssociation(point)</text><line style="stroke: #A80036; stroke-width: 1.0;" x1="494" x2="541" y1="202.2578" y2="202.2578"/><line style="stroke: #A80036; stroke-width: 1.0;" x1="541" x2="541" y1="202.2578" y2="215.2578"/><line style="stroke: #A80036; stroke-width: 1.0;" x1="500" x2="541" y1="215.2578" y2="215.2578"/><polygon fill="#A80036" points="510,211.2578,500,215.2578,510,219.2578,506,215.2578" style="stroke: #A80036; stroke-width: 1.0;"/><text fill="#000000" font-family="sans-serif" font-size="13" font-weight="bold" lengthAdjust="spacingAndGlyphs" textLength="9" x="506" y="197.1919">3</text><text fill="#000000" font-family="sans-serif" font-size="13" lengthAdjust="spacingAndGlyphs" textLength="113" x="519" y="197.1919">startPoint = point</text><line style="stroke: #A80036; stroke-width: 1.0; stroke-dasharray: 2.0,2.0;" x1="499" x2="541" y1="254.3906" y2="254.3906"/><line style="stroke: #A80036; stroke-width: 1.0; stroke-dasharray: 2.0,2.0;" x1="541" x2="541" y1="254.3906" y2="267.3906"/><line style="stroke: #A80036; stroke-width: 1.0; stroke-dasharray: 2.0,2.0;" x1="494" x2="541" y1="267.3906" y2="267.3906"/><polygon fill="#A80036" points="504,263.3906,494,267.3906,504,271.3906,500,267.3906" style="stroke: #A80036; stroke-width: 1.0;"/><text fill="#000000" font-family="sans-serif" font-size="13" font-weight="bold" lengthAdjust="spacingAndGlyphs" textLength="9" x="506" y="249.3247">4</text><text fill="#000000" font-family="sans-serif" font-size="13" lengthAdjust="spacingAndGlyphs" textLength="0" x="523" y="249.3247"/><polygon fill="#A80036" points="263,287.5234,253,291.5234,263,295.5234,259,291.5234" style="stroke: #A80036; stroke-width: 1.0;"/><line style="stroke: #A80036; stroke-width: 1.0; stroke-dasharray: 2.0,2.0;" x1="257" x2="488" y1="291.5234" y2="291.5234"/><text fill="#000000" font-family="sans-serif" font-size="13" font-weight="bold" lengthAdjust="spacingAndGlyphs" textLength="9" x="269" y="286.4575">5</text><text fill="#000000" font-family="sans-serif" font-size="13" lengthAdjust="spacingAndGlyphs" textLength="0" x="286" y="286.4575"/><polygon fill="#A80036" points="14,316.6563,4,320.6563,14,324.6563,10,320.6563" style="stroke: #A80036; stroke-width: 1.0;"/><line style="stroke: #A80036; stroke-width: 1.0; stroke-dasharray: 2.0,2.0;" x1="8" x2="246" y1="320.6563" y2="320.6563"/><text fill="#000000" font-family="sans-serif" font-size="13" font-weight="bold" lengthAdjust="spacingAndGlyphs" textLength="9" x="20" y="315.5903">6</text><text fill="#000000" font-family="sans-serif" font-size="13" lengthAdjust="spacingAndGlyphs" textLength="0" x="37" y="315.5903"/><polygon fill="#A80036" points="230,373.7891,240,377.7891,230,381.7891,234,377.7891" style="stroke: #A80036; stroke-width: 1.0;"/><line style="stroke: #A80036; stroke-width: 1.0;" x1="3" x2="236" y1="377.7891" y2="377.7891"/><text fill="#000000" font-family="sans-serif" font-size="13" font-weight="bold" lengthAdjust="spacingAndGlyphs" textLength="9" x="10" y="372.7231">7</text><text fill="#000000" font-family="sans-serif" font-size="13" lengthAdjust="spacingAndGlyphs" textLength="200" x="23" y="372.7231">endAddAssociation(type, point)</text><polygon fill="#A80036" points="472,402.9219,482,406.9219,472,410.9219,476,406.9219" style="stroke: #A80036; stroke-width: 1.0;"/><line style="stroke: #A80036; stroke-width: 1.0;" x1="252" x2="478" y1="406.9219" y2="406.9219"/><text fill="#000000" font-family="sans-serif" font-size="13" font-weight="bold" lengthAdjust="spacingAndGlyphs" textLength="9" x="259" y="401.856">8</text><text fill="#000000" font-family="sans-serif" font-size="13" lengthAdjust="spacingAndGlyphs" textLength="200" x="272" y="401.856">endAddAssociation(type, point)</text><polygon fill="#A80036" points="857,432.0547,867,436.0547,857,440.0547,861,436.0547" style="stroke: #A80036; stroke-width: 1.0;"/><line style="stroke: #A80036; stroke-width: 1.0; stroke-dasharray: 2.0,2.0;" x1="494" x2="863" y1="436.0547" y2="436.0547"/><text fill="#000000" font-family="sans-serif" font-size="13" font-weight="bold" lengthAdjust="spacingAndGlyphs" textLength="9" x="501" y="430.9888">9</text><text fill="#000000" font-family="sans-serif" font-size="13" lengthAdjust="spacingAndGlyphs" textLength="338" x="514" y="430.9888">newAddAssociationCommand(type, startPoint, point)</text><rect fill="#FEFECE" filter="url(#fioefbmmh7xjl)" height="30.2969" style="stroke: #A80036; stroke-width: 1.5;" width="173" x="869" y="414.9219"/><text fill="#000000" font-family="sans-serif" font-size="14" lengthAdjust="spacingAndGlyphs" textLength="159" x="876" y="434.917">assCmd:AddCommand</text><polygon fill="#A80036" points="1115,477.3516,1125,481.3516,1115,485.3516,1119,481.3516" style="stroke: #A80036; stroke-width: 1.0;"/><line style="stroke: #A80036; stroke-width: 1.0;" x1="494" x2="1121" y1="481.3516" y2="481.3516"/><text fill="#000000" font-family="sans-serif" font-size="13" font-weight="bold" lengthAdjust="spacingAndGlyphs" textLength="18" x="501" y="476.2856">10</text><text fill="#000000" font-family="sans-serif" font-size="13" lengthAdjust="spacingAndGlyphs" textLength="180" x="523" y="476.2856">ExecuteCommand(assCmd)</text><polygon fill="#A80036" points="973.5,506.4844,963.5,510.4844,973.5,514.4844,969.5,510.4844" style="stroke: #A80036; stroke-width: 1.0;"/><line style="stroke: #A80036; stroke-width: 1.0;" x1="967.5" x2="1126" y1="510.4844" y2="510.4844"/><text fill="#000000" font-family="sans-serif" font-size="13" font-weight="bold" lengthAdjust="spacingAndGlyphs" textLength="18" x="979.5" y="505.4185">11</text><text fill="#000000" font-family="sans-serif" font-size="13" lengthAdjust="spacingAndGlyphs" textLength="61" x="1001.5" y="505.4185">Execute()</text><polygon fill="#A80036" points="1257.5,535.6172,1267.5,539.6172,1257.5,543.6172,1261.5,539.6172" style="stroke: #A80036; stroke-width: 1.0;"/><line style="stroke: #A80036; stroke-width: 1.0;" x1="962.5" x2="1263.5" y1="539.6172" y2="539.6172"/><text fill="#000000" font-family="sans-serif" font-size="13" font-weight="bold" lengthAdjust="spacingAndGlyphs" textLength="18" x="969.5" y="534.5513">12</text><text fill="#000000" font-family="sans-serif" font-size="13" lengthAdjust="spacingAndGlyphs" textLength="245" x="991.5" y="534.5513">addAssociation(type, startPoint, point)</text><line style="stroke: #A80036; stroke-width: 1.0;" x1="1279.5" x2="1326.5" y1="563.75" y2="563.75"/><line style="stroke: #A80036; stroke-width: 1.0;" x1="1326.5" x2="1326.5" y1="563.75" y2="576.75"/><line style="stroke: #A80036; stroke-width: 1.0;" x1="1285.5" x2="1326.5" y1="576.75" y2="576.75"/><polygon fill="#A80036" points="1295.5,572.75,1285.5,576.75,1295.5,580.75,1291.5,576.75" style="stroke: #A80036; stroke-width: 1.0;"/><text fill="#000000" font-family="sans-serif" font-size="13" font-weight="bold" lengthAdjust="spacingAndGlyphs" textLength="18" x="1291.5" y="558.6841">13</text><text fill="#000000" font-family="sans-serif" font-size="13" lengthAdjust="spacingAndGlyphs" textLength="340" x="1313.5" y="558.6841">parents = [findGadget(startPoint), findGadget(point)]</text><line style="stroke: #A80036; stroke-width: 1.0; stroke-dasharray: 2.0,2.0;" x1="1284.5" x2="1326.5" y1="615.8828" y2="615.8828"/><line style="stroke: #A80036; stroke-width: 1.0; stroke-dasharray: 2.0,2.0;" x1="1326.5" x2="1326.5" y1="615.8828" y2="628.8828"/><line style="stroke: #A80036; stroke-width: 1.0; stroke-dasharray: 2.0,2.0;" x1="1279.5" x2="1326.5" y1="628.8828" y2="628.8828"/><polygon fill="#A80036" points="1289.5,624.8828,1279.5,628.8828,1289.5,632.8828,1285.5,628.8828" style="stroke: #A80036; stroke-width: 1.0;"/><text fill="#000000" font-family="sans-serif" font-size="13" font-weight="bold" lengthAdjust="spacingAndGlyphs" textLength="18" x="1291.5" y="610.8169">14</text><text fill="#000000" font-family="sans-serif" font-size="13" lengthAdjust="spacingAndGlyphs" textLength="0" x="1317.5" y="610.8169"/><path d="M1208,638.8828 L1278,638.8828 L1278,645.8828 L1268,655.8828 L1208,655.8828 L1208,638.8828 " fill="#FFD700" style="stroke: #000000; stroke-width: 1.0;"/><rect fill="none" height="348.3594" style="stroke: #000000; stroke-width: 2.0;" width="564" x="1208" y="638.8828"/><text fill="#000000" font-family="sans-serif" font-size="13" font-weight="bold" lengthAdjust="spacingAndGlyphs" textLength="25" x="1223" y="651.9497">opt</text><text fill="#000000" font-family="sans-serif" font-size="11" font-weight="bold" lengthAdjust="spacingAndGlyphs" textLength="170" x="1293" y="651.0933">[both parents are not null]</text><polygon fill="#A80036" points="1585.5,673.1484,1595.5,677.1484,1585.5,681.1484,1589.5,677.1484" style="stroke: #A80036; stroke-width: 1.0;"/><line style="stroke: #A80036; stroke-width: 1.0; stroke-dasharray: 2.0,2.0;" x1="1279.5" x2="1591.5" y1="677.1484" y2="677.1484"/><text fill="#000000" font-family="sans-serif" font-size="13" font-weight="bold" lengthAdjust="spacingAndGlyphs" textLength="18" x="1286.5" y="672.0825">15</text><text fill="#000000" font-family="sans-serif" font-size="13" lengthAdjust="spacingAndGlyphs" textLength="209" x="1308.5" y="672.0825">createAssociation(type, parents)</text><rect fill="#FEFECE" filter="url(#fioefbmmh7xjl)" height="30.2969" style="stroke: #A80036; stroke-width: 1.5;" width="122" x="1597.5" y="656.0156"/><text fill="#000000" font-family="sans-serif" font-size="14" lengthAdjust="spacingAndGlyphs" textLength="108" x="1604.5" y="676.0107">ass:Association</text><path d="M1284,706.3125 L1284,731.3125 L1372,731.3125 L1372,716.3125 L1362,706.3125 L1284,706.3125 " fill="#FF0000" filter="url(#fioefbmmh7xjl)" style="stroke: #A80036; stroke-width: 1.0;"/><path d="M1362,706.3125 L1362,716.3125 L1372,716.3125 L1362,706.3125 " fill="#FF0000" style="stroke: #A80036; stroke-width: 1.0;"/><text fill="#000000" font-family="sans-serif" font-size="13" lengthAdjust="spacingAndGlyphs" textLength="67" x="1290" y="723.3794">by Creator</text><line style="stroke: #A80036; stroke-width: 1.0;" x1="1279.5" x2="1326.5" y1="756.5781" y2="756.5781"/><line style="stroke: #A80036; stroke-width: 1.0;" x1="1326.5" x2="1326.5" y1="756.5781" y2="769.5781"/><line style="stroke: #A80036; stroke-width: 1.0;" x1="1285.5" x2="1326.5" y1="769.5781" y2="769.5781"/><polygon fill="#A80036" points="1295.5,765.5781,1285.5,769.5781,1295.5,773.5781,1291.5,769.5781" style="stroke: #A80036; stroke-width: 1.0;"/><text fill="#000000" font-family="sans-serif" font-size="13" font-weight="bold" lengthAdjust="spacingAndGlyphs" textLength="18" x="1291.5" y="751.5122">16</text><text fill="#000000" font-family="sans-serif" font-size="13" lengthAdjust="spacingAndGlyphs" textLength="230" x="1313.5" y="751.5122">adjustAssociationPath(*association)</text><path d="M1289,787.5781 L1289,812.5781 L1758,812.5781 L1758,797.5781 L1748,787.5781 L1289,787.5781 " fill="#FBFB77" filter="url(#fioefbmmh7xjl)" style="stroke: #A80036; stroke-width: 1.0;"/><path d="M1748,787.5781 L1748,797.5781 L1758,797.5781 L1748,787.5781 " fill="#FBFB77" style="stroke: #A80036; stroke-width: 1.0;"/><text fill="#000000" font-family="sans-serif" font-size="13" lengthAdjust="spacingAndGlyphs" textLength="448" x="1295" y="804.645">adjust the pathing of newly created association to prevent overlapping</text><line style="stroke: #A80036; stroke-width: 1.0; stroke-dasharray: 2.0,2.0;" x1="1284.5" x2="1326.5" y1="847.8438" y2="847.8438"/><line style="stroke: #A80036; stroke-width: 1.0; stroke-dasharray: 2.0,2.0;" x1="1326.5" x2="1326.5" y1="847.8438" y2="860.8438"/><line style="stroke: #A80036; stroke-width: 1.0; stroke-dasharray: 2.0,2.0;" x1="1279.5" x2="1326.5" y1="860.8438" y2="860.8438"/><polygon fill="#A80036" points="1289.5,856.8438,1279.5,860.8438,1289.5,864.8438,1285.5,860.8438" style="stroke: #A80036; stroke-width: 1.0;"/><text fill="#000000" font-family="sans-serif" font-size="13" font-weight="bold" lengthAdjust="spacingAndGlyphs" textLength="18" x="1291.5" y="842.7778">17</text><text fill="#000000" font-family="sans-serif" font-size="13" lengthAdjust="spacingAndGlyphs" textLength="0" x="1317.5" y="842.7778"/><line style="stroke: #A80036; stroke-width: 1.0;" x1="1279.5" x2="1326.5" y1="879.9766" y2="879.9766"/><line style="stroke: #A80036; stroke-width: 1.0;" x1="1326.5" x2="1326.5" y1="879.9766" y2="892.9766"/><line style="stroke: #A80036; stroke-width: 1.0;" x1="1285.5" x2="1326.5" y1="892.9766" y2="892.9766"/><polygon fill="#A80036" points="1295.5,888.9766,1285.5,892.9766,1295.5,896.9766,1291.5,892.9766" style="stroke: #A80036; stroke-width: 1.0;"/><text fill="#000000" font-family="sans-serif" font-size="13" font-weight="bold" lengthAdjust="spacingAndGlyphs" textLength="18" x="1291.5" y="874.9106">18</text><text fill="#000000" font-family="sans-serif" font-size="13" lengthAdjust="spacingAndGlyphs" textLength="267" x="1313.5" y="874.9106">components = append(components, ass)</text><path d="M1289,910.9766 L1289,935.9766 L1533,935.9766 L1533,920.9766 L1523,910.9766 L1289,910.9766 " fill="#FBFB77" filter="url(#fioefbmmh7xjl)" style="stroke: #A80036; stroke-width: 1.0;"/><path d="M1523,910.9766 L1523,920.9766 L1533,920.9766 L1523,910.9766 " fill="#FBFB77" style="stroke: #A80036; stroke-width: 1.0;"/><text fill="#000000" font-family="sans-serif" font-size="13" lengthAdjust="spacingAndGlyphs" textLength="223" x="1295" y="928.0435">append is a golang built-in function</text><line style="stroke: #A80036; stroke-width: 1.0; stroke-dasharray: 2.0,2.0;" x1="1284.5" x2="1326.5" y1="971.2422" y2="971.2422"/><line style="stroke: #A80036; stroke-width: 1.0; stroke-dasharray: 2.0,2.0;" x1="1326.5" x2="1326.5" y1="971.2422" y2="984.2422"/><line style="stroke: #A80036; stroke-width: 1.0; stroke-dasharray: 2.0,2.0;" x1="1279.5" x2="1326.5" y1="984.2422" y2="984.2422"/><polygon fill="#A80036" points="1289.5,980.2422,1279.5,984.2422,1289.5,988.2422,1285.5,984.2422" style="stroke: #A80036; stroke-width: 1.0;"/><text fill="#000000" font-family="sans-serif" font-size="13" font-weight="bold" lengthAdjust="spacingAndGlyphs" textLength="18" x="1291.5" y="966.1763">19</text><text fill="#000000" font-family="sans-serif" font-size="13" lengthAdjust="spacingAndGlyphs" textLength="0" x="1317.5" y="966.1763"/><polygon fill="#A80036" points="973.5,1011.375,963.5,1015.375,973.5,1019.375,969.5,1015.375" style="stroke: #A80036; stroke-width: 1.0;"/><line style="stroke: #A80036; stroke-width: 1.0; stroke-dasharray: 2.0,2.0;" x1="967.5" x2="1273.5" y1="1015.375" y2="1015.375"/><text fill="#000000" font-family="sans-serif" font-size="13" font-weight="bold" lengthAdjust="spacingAndGlyphs" textLength="18" x="979.5" y="1010.3091">20</text><text fill="#000000" font-family="sans-serif" font-size="13" lengthAdjust="spacingAndGlyphs" textLength="0" x="1005.5" y="1010.3091"/><polygon fill="#A80036" points="1115,1040.5078,1125,1044.5078,1115,1048.5078,1119,1044.5078" style="stroke: #A80036; stroke-width: 1.0;"/><line style="stroke: #A80036; stroke-width: 1.0; stroke-dasharray: 2.0,2.0;" x1="957.5" x2="1121" y1="1044.5078" y2="1044.5078"/><text fill="#000000" font-family="sans-serif" font-size="13" font-weight="bold" lengthAdjust="spacingAndGlyphs" textLength="18" x="964.5" y="1039.4419">21</text><text fill="#000000" font-family="sans-serif" font-size="13" lengthAdjust="spacingAndGlyphs" textLength="0" x="990.5" y="1039.4419"/><polygon fill="#A80036" points="505,1069.6406,495,1073.6406,505,1077.6406,501,1073.6406" style="stroke: #A80036; stroke-width: 1.0;"/><line style="stroke: #A80036; stroke-width: 1.0; stroke-dasharray: 2.0,2.0;" x1="499" x2="1131" y1="1073.6406" y2="1073.6406"/><text fill="#000000" font-family="sans-serif" font-size="13" font-weight="bold" lengthAdjust="spacingAndGlyphs" textLength="18" x="511" y="1068.5747">22</text><text fill="#000000" font-family="sans-serif" font-size="13" lengthAdjust="spacingAndGlyphs" textLength="0" x="537" y="1068.5747"/><polygon fill="#A80036" points="263,1098.7734,253,1102.7734,263,1106.7734,259,1102.7734" style="stroke: #A80036; stroke-width: 1.0;"/><line style="stroke: #A80036; stroke-width: 1.0; stroke-dasharray: 2.0,2.0;" x1="257" x2="488" y1="1102.7734" y2="1102.7734"/><text fill="#000000" font-family="sans-serif" font-size="13" font-weight="bold" lengthAdjust="spacingAndGlyphs" textLength="18" x="269" y="1097.7075">23</text><text fill="#000000" font-family="sans-serif" font-size="13" lengthAdjust="spacingAndGlyphs" textLength="0" x="295" y="1097.7075"/><polygon fill="#A80036" points="14,1127.9063,4,1131.9063,14,1135.9063,10,1131.9063" style="stroke: #A80036; stroke-width: 1.0;"/><line style="stroke: #A80036; stroke-width: 1.0; stroke-dasharray: 2.0,2.0;" x1="8" x2="246" y1="1131.9063" y2="1131.9063"/><text fill="#000000" font-family="sans-serif" font-size="13" font-weight="bold" lengthAdjust="spacingAndGlyphs" textLength="18" x="20" y="1126.8403">24</text><text fill="#000000" font-family="sans-serif" font-size="13" lengthAdjust="spacingAndGlyphs" textLength="0" x="46" y="1126.8403"/><!--MD5=[aea11b1073497fed7f1959b913c9e516]
@startuml addAssociationToDiagram
autonumber
autoactivate on
group#gold #white addAssociationToDiagram
-> ":UMLProject": startAddAssociation(point)
note left of ":UMLProject" #red: by Controller
    ":UMLProject" -> "currentDiagram\n:*UMLDiagram": startAddAssociation(point)
        "currentDiagram\n:*UMLDiagram" -> "currentDiagram\n:*UMLDiagram": startPoint = point
        return
    return
return
...
-> ":UMLProject": endAddAssociation(type, point)
    ":UMLProject" -> "currentDiagram\n:*UMLDiagram": endAddAssociation(type, point)
        "currentDiagram\n:*UMLDiagram" - -> "assCmd:AddCommand" ** : newAddAssociationCommand(type, startPoint, point)
        "currentDiagram\n:*UMLDiagram" -> ":commandManager" : ExecuteCommand(assCmd)
            ":commandManager" -> "assCmd:AddCommand" : Execute()
                "assCmd:AddCommand" -> ":Components": addAssociation(type, startPoint, point)
                    ":Components" -> ":Components": parents = [findGadget(startPoint), findGadget(point)]
                    return

                    opt#gold #white both parents are not null
                        ":Components" - -> "ass:Association" ** : createAssociation(type, parents)
                        note right of ":Components" #red: by Creator

                        ":Components" -> ":Components" : adjustAssociationPath(*association)
                        note right of ":Components": adjust the pathing of newly created association to prevent overlapping
                        return

                        ":Components" -> ":Components": components = append(components, ass)
                        note right of ":Components": append is a golang built-in function
                        return
                    end
                return
            return
        return
    return
return
end addAssociationToDiagram
@enduml

PlantUML version 1.2020.02(Sun Mar 01 10:22:07 UTC 2020)
(GPL source distribution)
Java Runtime: OpenJDK Runtime Environment
JVM: OpenJDK 64-Bit Server VM
Java Version: 21.0.7+6-Ubuntu-0ubuntu124.04
Operating System: Linux
Default Encoding: UTF-8
Language: en
Country: null
--></g></svg>
