<?xml version="1.0" encoding="UTF-8" standalone="no"?><svg xmlns="http://www.w3.org/2000/svg" xmlns:xlink="http://www.w3.org/1999/xlink" contentScriptType="application/ecmascript" contentStyleType="text/css" height="716px" preserveAspectRatio="none" style="width:1488px;height:716px;" version="1.1" viewBox="0 0 1488 716" width="1488px" zoomAndPan="magnify"><defs><filter height="300%" id="f19nl6irysg46r" width="300%" x="-1" y="-1"><feGaussianBlur result="blurOut" stdDeviation="2.0"/><feColorMatrix in="blurOut" result="blurOut2" type="matrix" values="0 0 0 0 0 0 0 0 0 0 0 0 0 0 0 0 0 0 .4 0"/><feOffset dx="4.0" dy="4.0" in="blurOut2" result="blurOut3"/><feBlend in="SourceGraphic" in2="blurOut3" mode="normal"/></filter></defs><g><rect fill="#FFFFFF" filter="url(#f19nl6irysg46r)" height="541.3203" style="stroke: #A80036; stroke-width: 1.0;" width="10" x="191" y="109.8594"/><rect fill="#FFFFFF" filter="url(#f19nl6irysg46r)" height="457.0547" style="stroke: #A80036; stroke-width: 1.0;" width="10" x="382" y="178.125"/><rect fill="#FFFFFF" filter="url(#f19nl6irysg46r)" height="295.2266" style="stroke: #A80036; stroke-width: 1.0;" width="10" x="755.5" y="281.6875"/><rect fill="#FFFFFF" filter="url(#f19nl6irysg46r)" height="353.4922" style="stroke: #A80036; stroke-width: 1.0;" width="10" x="931" y="252.5547"/><rect fill="#FFFFFF" filter="url(#f19nl6irysg46r)" height="236.9609" style="stroke: #A80036; stroke-width: 1.0;" width="10" x="1073.5" y="310.8203"/><rect fill="#FFFFFF" filter="url(#f19nl6irysg46r)" height="79.2656" style="stroke: #A80036; stroke-width: 1.0;" width="10" x="1078.5" y="432.3828"/><rect fill="#FFFFFF" filter="url(#f19nl6irysg46r)" height="571.5859" style="stroke: #000000; stroke-width: 2.0;" width="1471" x="6" y="71.5938"/><line style="stroke: #A80036; stroke-width: 1.0; stroke-dasharray: 5.0,5.0;" x1="196" x2="196" y1="54.5938" y2="660.1797"/><line style="stroke: #A80036; stroke-width: 1.0; stroke-dasharray: 5.0,5.0;" x1="386.5" x2="386.5" y1="54.5938" y2="660.1797"/><line style="stroke: #A80036; stroke-width: 1.0; stroke-dasharray: 5.0,5.0;" x1="760" x2="760" y1="218.7734" y2="660.1797"/><line style="stroke: #A80036; stroke-width: 1.0; stroke-dasharray: 5.0,5.0;" x1="936" x2="936" y1="54.5938" y2="660.1797"/><line style="stroke: #A80036; stroke-width: 1.0; stroke-dasharray: 5.0,5.0;" x1="1078" x2="1078" y1="54.5938" y2="660.1797"/><line style="stroke: #A80036; stroke-width: 1.0; stroke-dasharray: 5.0,5.0;" x1="1405" x2="1405" y1="351.4688" y2="660.1797"/><rect fill="#FEFECE" filter="url(#f19nl6irysg46r)" height="30.2969" style="stroke: #A80036; stroke-width: 1.5;" width="96" x="146" y="19.2969"/><text fill="#000000" font-family="sans-serif" font-size="14" lengthAdjust="spacingAndGlyphs" textLength="82" x="153" y="39.292">:UMLProject</text><rect fill="#FEFECE" filter="url(#f19nl6irysg46r)" height="30.2969" style="stroke: #A80036; stroke-width: 1.5;" width="96" x="146" y="659.1797"/><text fill="#000000" font-family="sans-serif" font-size="14" lengthAdjust="spacingAndGlyphs" textLength="82" x="153" y="679.1748">:UMLProject</text><rect fill="#FEFECE" filter="url(#f19nl6irysg46r)" height="46.5938" style="stroke: #A80036; stroke-width: 1.5;" width="121" x="324.5" y="3"/><text fill="#000000" font-family="sans-serif" font-size="14" lengthAdjust="spacingAndGlyphs" textLength="107" x="331.5" y="22.9951">currentDiagram</text><text fill="#000000" font-family="sans-serif" font-size="14" lengthAdjust="spacingAndGlyphs" textLength="98" x="336" y="39.292">:*UMLDiagram</text><rect fill="#FEFECE" filter="url(#f19nl6irysg46r)" height="46.5938" style="stroke: #A80036; stroke-width: 1.5;" width="121" x="324.5" y="659.1797"/><text fill="#000000" font-family="sans-serif" font-size="14" lengthAdjust="spacingAndGlyphs" textLength="107" x="331.5" y="679.1748">currentDiagram</text><text fill="#000000" font-family="sans-serif" font-size="14" lengthAdjust="spacingAndGlyphs" textLength="98" x="336" y="695.4717">:*UMLDiagram</text><rect fill="#FEFECE" filter="url(#f19nl6irysg46r)" height="30.2969" style="stroke: #A80036; stroke-width: 1.5;" width="175" x="671" y="659.1797"/><text fill="#000000" font-family="sans-serif" font-size="14" lengthAdjust="spacingAndGlyphs" textLength="161" x="678" y="679.1748">addCmd:AddCommand</text><rect fill="#FEFECE" filter="url(#f19nl6irysg46r)" height="30.2969" style="stroke: #A80036; stroke-width: 1.5;" width="148" x="860" y="19.2969"/><text fill="#000000" font-family="sans-serif" font-size="14" lengthAdjust="spacingAndGlyphs" textLength="134" x="867" y="39.292">:commandManager</text><rect fill="#FEFECE" filter="url(#f19nl6irysg46r)" height="30.2969" style="stroke: #A80036; stroke-width: 1.5;" width="148" x="860" y="659.1797"/><text fill="#000000" font-family="sans-serif" font-size="14" lengthAdjust="spacingAndGlyphs" textLength="134" x="867" y="679.1748">:commandManager</text><rect fill="#FEFECE" filter="url(#f19nl6irysg46r)" height="30.2969" style="stroke: #A80036; stroke-width: 1.5;" width="109" x="1022" y="19.2969"/><text fill="#000000" font-family="sans-serif" font-size="14" lengthAdjust="spacingAndGlyphs" textLength="95" x="1029" y="39.292">:Components</text><rect fill="#FEFECE" filter="url(#f19nl6irysg46r)" height="30.2969" style="stroke: #A80036; stroke-width: 1.5;" width="109" x="1022" y="659.1797"/><text fill="#000000" font-family="sans-serif" font-size="14" lengthAdjust="spacingAndGlyphs" textLength="95" x="1029" y="679.1748">:Components</text><rect fill="#FEFECE" filter="url(#f19nl6irysg46r)" height="30.2969" style="stroke: #A80036; stroke-width: 1.5;" width="119" x="1344" y="659.1797"/><text fill="#000000" font-family="sans-serif" font-size="14" lengthAdjust="spacingAndGlyphs" textLength="105" x="1351" y="679.1748">gadget:Gadget</text><rect fill="#FFFFFF" filter="url(#f19nl6irysg46r)" height="541.3203" style="stroke: #A80036; stroke-width: 1.0;" width="10" x="191" y="109.8594"/><rect fill="#FFFFFF" filter="url(#f19nl6irysg46r)" height="457.0547" style="stroke: #A80036; stroke-width: 1.0;" width="10" x="382" y="178.125"/><rect fill="#FFFFFF" filter="url(#f19nl6irysg46r)" height="295.2266" style="stroke: #A80036; stroke-width: 1.0;" width="10" x="755.5" y="281.6875"/><rect fill="#FFFFFF" filter="url(#f19nl6irysg46r)" height="353.4922" style="stroke: #A80036; stroke-width: 1.0;" width="10" x="931" y="252.5547"/><rect fill="#FFFFFF" filter="url(#f19nl6irysg46r)" height="236.9609" style="stroke: #A80036; stroke-width: 1.0;" width="10" x="1073.5" y="310.8203"/><rect fill="#FFFFFF" filter="url(#f19nl6irysg46r)" height="79.2656" style="stroke: #A80036; stroke-width: 1.0;" width="10" x="1078.5" y="432.3828"/><path d="M6,71.5938 L215,71.5938 L215,78.5938 L205,88.5938 L6,88.5938 L6,71.5938 " fill="#FFD700" style="stroke: #000000; stroke-width: 1.0;"/><rect fill="none" height="571.5859" style="stroke: #000000; stroke-width: 2.0;" width="1471" x="6" y="71.5938"/><text fill="#000000" font-family="sans-serif" font-size="13" font-weight="bold" lengthAdjust="spacingAndGlyphs" textLength="164" x="21" y="84.6606">addGadgetToDiagram</text><polygon fill="#A80036" points="179,105.8594,189,109.8594,179,113.8594,183,109.8594" style="stroke: #A80036; stroke-width: 1.0;"/><line style="stroke: #A80036; stroke-width: 1.0;" x1="3" x2="185" y1="109.8594" y2="109.8594"/><text fill="#000000" font-family="sans-serif" font-size="13" font-weight="bold" lengthAdjust="spacingAndGlyphs" textLength="9" x="10" y="104.7935">1</text><text fill="#000000" font-family="sans-serif" font-size="13" lengthAdjust="spacingAndGlyphs" textLength="149" x="23" y="104.7935">addGadget(type, point)</text><path d="M80,122.8594 L80,147.8594 L182,147.8594 L182,132.8594 L172,122.8594 L80,122.8594 " fill="#FF0000" filter="url(#f19nl6irysg46r)" style="stroke: #A80036; stroke-width: 1.0;"/><path d="M172,122.8594 L172,132.8594 L182,132.8594 L172,122.8594 " fill="#FF0000" style="stroke: #A80036; stroke-width: 1.0;"/><text fill="#000000" font-family="sans-serif" font-size="13" lengthAdjust="spacingAndGlyphs" textLength="81" x="86" y="139.9263">by Controller</text><polygon fill="#A80036" points="370,174.125,380,178.125,370,182.125,374,178.125" style="stroke: #A80036; stroke-width: 1.0;"/><line style="stroke: #A80036; stroke-width: 1.0;" x1="201" x2="376" y1="178.125" y2="178.125"/><text fill="#000000" font-family="sans-serif" font-size="13" font-weight="bold" lengthAdjust="spacingAndGlyphs" textLength="9" x="208" y="173.0591">2</text><text fill="#000000" font-family="sans-serif" font-size="13" lengthAdjust="spacingAndGlyphs" textLength="149" x="221" y="173.0591">addGadget(type, point)</text><polygon fill="#A80036" points="659,203.2578,669,207.2578,659,211.2578,663,207.2578" style="stroke: #A80036; stroke-width: 1.0;"/><line style="stroke: #A80036; stroke-width: 1.0; stroke-dasharray: 2.0,2.0;" x1="392" x2="665" y1="207.2578" y2="207.2578"/><text fill="#000000" font-family="sans-serif" font-size="13" font-weight="bold" lengthAdjust="spacingAndGlyphs" textLength="9" x="399" y="202.1919">3</text><text fill="#000000" font-family="sans-serif" font-size="13" lengthAdjust="spacingAndGlyphs" textLength="242" x="412" y="202.1919">newAddGadgetCommand(type, point)</text><rect fill="#FEFECE" filter="url(#f19nl6irysg46r)" height="30.2969" style="stroke: #A80036; stroke-width: 1.5;" width="175" x="671" y="186.125"/><text fill="#000000" font-family="sans-serif" font-size="14" lengthAdjust="spacingAndGlyphs" textLength="161" x="678" y="206.1201">addCmd:AddCommand</text><polygon fill="#A80036" points="919,248.5547,929,252.5547,919,256.5547,923,252.5547" style="stroke: #A80036; stroke-width: 1.0;"/><line style="stroke: #A80036; stroke-width: 1.0;" x1="392" x2="925" y1="252.5547" y2="252.5547"/><text fill="#000000" font-family="sans-serif" font-size="13" font-weight="bold" lengthAdjust="spacingAndGlyphs" textLength="9" x="399" y="247.4888">4</text><text fill="#000000" font-family="sans-serif" font-size="13" lengthAdjust="spacingAndGlyphs" textLength="182" x="412" y="247.4888">ExecuteCommand(addCmd)</text><polygon fill="#A80036" points="776.5,277.6875,766.5,281.6875,776.5,285.6875,772.5,281.6875" style="stroke: #A80036; stroke-width: 1.0;"/><line style="stroke: #A80036; stroke-width: 1.0;" x1="770.5" x2="930" y1="281.6875" y2="281.6875"/><text fill="#000000" font-family="sans-serif" font-size="13" font-weight="bold" lengthAdjust="spacingAndGlyphs" textLength="9" x="782.5" y="276.6216">5</text><text fill="#000000" font-family="sans-serif" font-size="13" lengthAdjust="spacingAndGlyphs" textLength="61" x="795.5" y="276.6216">Execute()</text><polygon fill="#A80036" points="1061.5,306.8203,1071.5,310.8203,1061.5,314.8203,1065.5,310.8203" style="stroke: #A80036; stroke-width: 1.0;"/><line style="stroke: #A80036; stroke-width: 1.0;" x1="765.5" x2="1067.5" y1="310.8203" y2="310.8203"/><text fill="#000000" font-family="sans-serif" font-size="13" font-weight="bold" lengthAdjust="spacingAndGlyphs" textLength="9" x="772.5" y="305.7544">6</text><text fill="#000000" font-family="sans-serif" font-size="13" lengthAdjust="spacingAndGlyphs" textLength="149" x="785.5" y="305.7544">addGadget(type, point)</text><polygon fill="#A80036" points="1332,335.9531,1342,339.9531,1332,343.9531,1336,339.9531" style="stroke: #A80036; stroke-width: 1.0;"/><line style="stroke: #A80036; stroke-width: 1.0; stroke-dasharray: 2.0,2.0;" x1="1083.5" x2="1338" y1="339.9531" y2="339.9531"/><text fill="#000000" font-family="sans-serif" font-size="13" font-weight="bold" lengthAdjust="spacingAndGlyphs" textLength="9" x="1090.5" y="334.8872">7</text><text fill="#000000" font-family="sans-serif" font-size="13" lengthAdjust="spacingAndGlyphs" textLength="166" x="1103.5" y="334.8872">createGadget(type, point)</text><rect fill="#FEFECE" filter="url(#f19nl6irysg46r)" height="30.2969" style="stroke: #A80036; stroke-width: 1.5;" width="119" x="1344" y="318.8203"/><text fill="#000000" font-family="sans-serif" font-size="14" lengthAdjust="spacingAndGlyphs" textLength="105" x="1351" y="338.8154">gadget:Gadget</text><path d="M1088,369.1172 L1088,394.1172 L1176,394.1172 L1176,379.1172 L1166,369.1172 L1088,369.1172 " fill="#FF0000" filter="url(#f19nl6irysg46r)" style="stroke: #A80036; stroke-width: 1.0;"/><path d="M1166,369.1172 L1166,379.1172 L1176,379.1172 L1166,369.1172 " fill="#FF0000" style="stroke: #A80036; stroke-width: 1.0;"/><text fill="#000000" font-family="sans-serif" font-size="13" lengthAdjust="spacingAndGlyphs" textLength="67" x="1094" y="386.1841">by Creator</text><line style="stroke: #A80036; stroke-width: 1.0;" x1="1083.5" x2="1130.5" y1="419.3828" y2="419.3828"/><line style="stroke: #A80036; stroke-width: 1.0;" x1="1130.5" x2="1130.5" y1="419.3828" y2="432.3828"/><line style="stroke: #A80036; stroke-width: 1.0;" x1="1089.5" x2="1130.5" y1="432.3828" y2="432.3828"/><polygon fill="#A80036" points="1099.5,428.3828,1089.5,432.3828,1099.5,436.3828,1095.5,432.3828" style="stroke: #A80036; stroke-width: 1.0;"/><text fill="#000000" font-family="sans-serif" font-size="13" font-weight="bold" lengthAdjust="spacingAndGlyphs" textLength="9" x="1095.5" y="414.3169">8</text><text fill="#000000" font-family="sans-serif" font-size="13" lengthAdjust="spacingAndGlyphs" textLength="290" x="1108.5" y="414.3169">components = append(components, gadget)</text><path d="M1093,450.3828 L1093,475.3828 L1290,475.3828 L1290,460.3828 L1280,450.3828 L1093,450.3828 " fill="#FBFB77" filter="url(#f19nl6irysg46r)" style="stroke: #A80036; stroke-width: 1.0;"/><path d="M1280,450.3828 L1280,460.3828 L1290,460.3828 L1280,450.3828 " fill="#FBFB77" style="stroke: #A80036; stroke-width: 1.0;"/><text fill="#000000" font-family="sans-serif" font-size="13" lengthAdjust="spacingAndGlyphs" textLength="176" x="1099" y="467.4497">append is a built-in function</text><line style="stroke: #A80036; stroke-width: 1.0; stroke-dasharray: 2.0,2.0;" x1="1088.5" x2="1130.5" y1="510.6484" y2="510.6484"/><line style="stroke: #A80036; stroke-width: 1.0; stroke-dasharray: 2.0,2.0;" x1="1130.5" x2="1130.5" y1="510.6484" y2="523.6484"/><line style="stroke: #A80036; stroke-width: 1.0; stroke-dasharray: 2.0,2.0;" x1="1083.5" x2="1130.5" y1="523.6484" y2="523.6484"/><polygon fill="#A80036" points="1093.5,519.6484,1083.5,523.6484,1093.5,527.6484,1089.5,523.6484" style="stroke: #A80036; stroke-width: 1.0;"/><text fill="#000000" font-family="sans-serif" font-size="13" font-weight="bold" lengthAdjust="spacingAndGlyphs" textLength="9" x="1095.5" y="505.5825">9</text><text fill="#000000" font-family="sans-serif" font-size="13" lengthAdjust="spacingAndGlyphs" textLength="0" x="1112.5" y="505.5825"/><polygon fill="#A80036" points="776.5,543.7813,766.5,547.7813,776.5,551.7813,772.5,547.7813" style="stroke: #A80036; stroke-width: 1.0;"/><line style="stroke: #A80036; stroke-width: 1.0; stroke-dasharray: 2.0,2.0;" x1="770.5" x2="1077.5" y1="547.7813" y2="547.7813"/><text fill="#000000" font-family="sans-serif" font-size="13" font-weight="bold" lengthAdjust="spacingAndGlyphs" textLength="18" x="782.5" y="542.7153">10</text><text fill="#000000" font-family="sans-serif" font-size="13" lengthAdjust="spacingAndGlyphs" textLength="0" x="808.5" y="542.7153"/><polygon fill="#A80036" points="919,572.9141,929,576.9141,919,580.9141,923,576.9141" style="stroke: #A80036; stroke-width: 1.0;"/><line style="stroke: #A80036; stroke-width: 1.0; stroke-dasharray: 2.0,2.0;" x1="760.5" x2="925" y1="576.9141" y2="576.9141"/><text fill="#000000" font-family="sans-serif" font-size="13" font-weight="bold" lengthAdjust="spacingAndGlyphs" textLength="18" x="767.5" y="571.8481">11</text><text fill="#000000" font-family="sans-serif" font-size="13" lengthAdjust="spacingAndGlyphs" textLength="0" x="793.5" y="571.8481"/><polygon fill="#A80036" points="403,602.0469,393,606.0469,403,610.0469,399,606.0469" style="stroke: #A80036; stroke-width: 1.0;"/><line style="stroke: #A80036; stroke-width: 1.0; stroke-dasharray: 2.0,2.0;" x1="397" x2="935" y1="606.0469" y2="606.0469"/><text fill="#000000" font-family="sans-serif" font-size="13" font-weight="bold" lengthAdjust="spacingAndGlyphs" textLength="18" x="409" y="600.981">12</text><text fill="#000000" font-family="sans-serif" font-size="13" lengthAdjust="spacingAndGlyphs" textLength="0" x="435" y="600.981"/><polygon fill="#A80036" points="212,631.1797,202,635.1797,212,639.1797,208,635.1797" style="stroke: #A80036; stroke-width: 1.0;"/><line style="stroke: #A80036; stroke-width: 1.0; stroke-dasharray: 2.0,2.0;" x1="206" x2="386" y1="635.1797" y2="635.1797"/><text fill="#000000" font-family="sans-serif" font-size="13" font-weight="bold" lengthAdjust="spacingAndGlyphs" textLength="18" x="218" y="630.1138">13</text><text fill="#000000" font-family="sans-serif" font-size="13" lengthAdjust="spacingAndGlyphs" textLength="0" x="244" y="630.1138"/><!--MD5=[8bac5b056778c7652ed3e20b31e8bd7d]
@startuml addGadgetToDiagram
autonumber
autoactivate on
group#gold #white addGadgetToDiagram
    -> ":UMLProject": addGadget(type, point)
    note left of ":UMLProject" #red: by Controller
        ":UMLProject" -> "currentDiagram\n:*UMLDiagram"  : addGadget(type, point)
            "currentDiagram\n:*UMLDiagram" - -> "addCmd:AddCommand" ** : newAddGadgetCommand(type, point)
            "currentDiagram\n:*UMLDiagram" -> ":commandManager" : ExecuteCommand(addCmd)
                ":commandManager" -> "addCmd:AddCommand" : Execute()
                    "addCmd:AddCommand" -> ":Components" : addGadget(type, point)
                        ":Components"  - -> "gadget:Gadget" ** : createGadget(type, point)
                        note right of ":Components" #red: by Creator
                        ":Components" -> ":Components": components = append(components, gadget)
                        note right of ":Components": append is a built-in function
                        return
                    return
                return
        return
    return
end addGadgetToDiagram
@enduml

PlantUML version 1.2020.02(Sun Mar 01 10:22:07 UTC 2020)
(GPL source distribution)
Java Runtime: OpenJDK Runtime Environment
JVM: OpenJDK 64-Bit Server VM
Java Version: 21.0.7+6-Ubuntu-0ubuntu124.04
Operating System: Linux
Default Encoding: UTF-8
Language: en
Country: null
--></g></svg>
