<?xml version="1.0" encoding="UTF-8" standalone="no"?><svg xmlns="http://www.w3.org/2000/svg" xmlns:xlink="http://www.w3.org/1999/xlink" contentScriptType="application/ecmascript" contentStyleType="text/css" height="789px" preserveAspectRatio="none" style="width:1677px;height:789px;" version="1.1" viewBox="0 0 1677 789" width="1677px" zoomAndPan="magnify"><defs><filter height="300%" id="f188krj83hi6wn" width="300%" x="-1" y="-1"><feGaussianBlur result="blurOut" stdDeviation="2.0"/><feColorMatrix in="blurOut" result="blurOut2" type="matrix" values="0 0 0 0 0 0 0 0 0 0 0 0 0 0 0 0 0 0 .4 0"/><feOffset dx="4.0" dy="4.0" in="blurOut2" result="blurOut3"/><feBlend in="SourceGraphic" in2="blurOut3" mode="normal"/></filter></defs><g><rect fill="#FFFFFF" filter="url(#f188krj83hi6wn)" height="597.5547" style="stroke: #A80036; stroke-width: 1.0;" width="10" x="169" y="109.8594"/><rect fill="#FFFFFF" filter="url(#f188krj83hi6wn)" height="500.1563" style="stroke: #A80036; stroke-width: 1.0;" width="10" x="338" y="178.125"/><rect fill="#FFFFFF" filter="url(#f188krj83hi6wn)" height="338.3281" style="stroke: #A80036; stroke-width: 1.0;" width="10" x="756.5" y="281.6875"/><rect fill="#FFFFFF" filter="url(#f188krj83hi6wn)" height="396.5938" style="stroke: #A80036; stroke-width: 1.0;" width="10" x="939" y="252.5547"/><rect fill="#FFFFFF" filter="url(#f188krj83hi6wn)" height="280.0625" style="stroke: #A80036; stroke-width: 1.0;" width="10" x="1081.5" y="310.8203"/><rect fill="#FFFFFF" filter="url(#f188krj83hi6wn)" height="46.1992" style="stroke: #A80036; stroke-width: 1.0;" width="10" x="1086.5" y="347.9531"/><rect fill="#FFFFFF" filter="url(#f188krj83hi6wn)" height="79.2656" style="stroke: #A80036; stroke-width: 1.0;" width="10" x="1086.5" y="468.4844"/><rect fill="#FFFFFF" filter="url(#f188krj83hi6wn)" height="643.8203" style="stroke: #000000; stroke-width: 2.0;" width="1660.5" x="6" y="71.5938"/><rect fill="#FFFFFF" filter="url(#f188krj83hi6wn)" height="140.5313" style="stroke: #000000; stroke-width: 2.0;" width="325" x="1020" y="422.2188"/><line style="stroke: #A80036; stroke-width: 1.0; stroke-dasharray: 5.0,5.0;" x1="174" x2="174" y1="54.5938" y2="732.4141"/><line style="stroke: #A80036; stroke-width: 1.0; stroke-dasharray: 5.0,5.0;" x1="342.5" x2="342.5" y1="54.5938" y2="732.4141"/><line style="stroke: #A80036; stroke-width: 1.0; stroke-dasharray: 5.0,5.0;" x1="761" x2="761" y1="218.7734" y2="732.4141"/><line style="stroke: #A80036; stroke-width: 1.0; stroke-dasharray: 5.0,5.0;" x1="944" x2="944" y1="54.5938" y2="732.4141"/><line style="stroke: #A80036; stroke-width: 1.0; stroke-dasharray: 5.0,5.0;" x1="1086" x2="1086" y1="54.5938" y2="732.4141"/><rect fill="#FEFECE" filter="url(#f188krj83hi6wn)" height="30.2969" style="stroke: #A80036; stroke-width: 1.5;" width="96" x="124" y="19.2969"/><text fill="#000000" font-family="sans-serif" font-size="14" lengthAdjust="spacingAndGlyphs" textLength="82" x="131" y="39.292">:UMLProject</text><rect fill="#FEFECE" filter="url(#f188krj83hi6wn)" height="30.2969" style="stroke: #A80036; stroke-width: 1.5;" width="96" x="124" y="731.4141"/><text fill="#000000" font-family="sans-serif" font-size="14" lengthAdjust="spacingAndGlyphs" textLength="82" x="131" y="751.4092">:UMLProject</text><rect fill="#FEFECE" filter="url(#f188krj83hi6wn)" height="46.5938" style="stroke: #A80036; stroke-width: 1.5;" width="121" x="280.5" y="3"/><text fill="#000000" font-family="sans-serif" font-size="14" lengthAdjust="spacingAndGlyphs" textLength="107" x="287.5" y="22.9951">currentDiagram</text><text fill="#000000" font-family="sans-serif" font-size="14" lengthAdjust="spacingAndGlyphs" textLength="98" x="292" y="39.292">:*UMLDiagram</text><rect fill="#FEFECE" filter="url(#f188krj83hi6wn)" height="46.5938" style="stroke: #A80036; stroke-width: 1.5;" width="121" x="280.5" y="731.4141"/><text fill="#000000" font-family="sans-serif" font-size="14" lengthAdjust="spacingAndGlyphs" textLength="107" x="287.5" y="751.4092">currentDiagram</text><text fill="#000000" font-family="sans-serif" font-size="14" lengthAdjust="spacingAndGlyphs" textLength="98" x="292" y="767.7061">:*UMLDiagram</text><rect fill="#FEFECE" filter="url(#f188krj83hi6wn)" height="30.2969" style="stroke: #A80036; stroke-width: 1.5;" width="189" x="665" y="731.4141"/><text fill="#000000" font-family="sans-serif" font-size="14" lengthAdjust="spacingAndGlyphs" textLength="175" x="672" y="751.4092">delCmd:DeleteCommand</text><rect fill="#FEFECE" filter="url(#f188krj83hi6wn)" height="30.2969" style="stroke: #A80036; stroke-width: 1.5;" width="148" x="868" y="19.2969"/><text fill="#000000" font-family="sans-serif" font-size="14" lengthAdjust="spacingAndGlyphs" textLength="134" x="875" y="39.292">:commandManager</text><rect fill="#FEFECE" filter="url(#f188krj83hi6wn)" height="30.2969" style="stroke: #A80036; stroke-width: 1.5;" width="148" x="868" y="731.4141"/><text fill="#000000" font-family="sans-serif" font-size="14" lengthAdjust="spacingAndGlyphs" textLength="134" x="875" y="751.4092">:commandManager</text><rect fill="#FEFECE" filter="url(#f188krj83hi6wn)" height="30.2969" style="stroke: #A80036; stroke-width: 1.5;" width="109" x="1030" y="19.2969"/><text fill="#000000" font-family="sans-serif" font-size="14" lengthAdjust="spacingAndGlyphs" textLength="95" x="1037" y="39.292">:Components</text><rect fill="#FEFECE" filter="url(#f188krj83hi6wn)" height="30.2969" style="stroke: #A80036; stroke-width: 1.5;" width="109" x="1030" y="731.4141"/><text fill="#000000" font-family="sans-serif" font-size="14" lengthAdjust="spacingAndGlyphs" textLength="95" x="1037" y="751.4092">:Components</text><rect fill="#FFFFFF" filter="url(#f188krj83hi6wn)" height="597.5547" style="stroke: #A80036; stroke-width: 1.0;" width="10" x="169" y="109.8594"/><rect fill="#FFFFFF" filter="url(#f188krj83hi6wn)" height="500.1563" style="stroke: #A80036; stroke-width: 1.0;" width="10" x="338" y="178.125"/><rect fill="#FFFFFF" filter="url(#f188krj83hi6wn)" height="338.3281" style="stroke: #A80036; stroke-width: 1.0;" width="10" x="756.5" y="281.6875"/><rect fill="#FFFFFF" filter="url(#f188krj83hi6wn)" height="396.5938" style="stroke: #A80036; stroke-width: 1.0;" width="10" x="939" y="252.5547"/><rect fill="#FFFFFF" filter="url(#f188krj83hi6wn)" height="280.0625" style="stroke: #A80036; stroke-width: 1.0;" width="10" x="1081.5" y="310.8203"/><rect fill="#FFFFFF" filter="url(#f188krj83hi6wn)" height="46.1992" style="stroke: #A80036; stroke-width: 1.0;" width="10" x="1086.5" y="347.9531"/><rect fill="#FFFFFF" filter="url(#f188krj83hi6wn)" height="79.2656" style="stroke: #A80036; stroke-width: 1.0;" width="10" x="1086.5" y="468.4844"/><path d="M6,71.5938 L183,71.5938 L183,78.5938 L173,88.5938 L6,88.5938 L6,71.5938 " fill="#FFD700" style="stroke: #000000; stroke-width: 1.0;"/><rect fill="none" height="643.8203" style="stroke: #000000; stroke-width: 2.0;" width="1660.5" x="6" y="71.5938"/><text fill="#000000" font-family="sans-serif" font-size="13" font-weight="bold" lengthAdjust="spacingAndGlyphs" textLength="132" x="21" y="84.6606">deleteComponent</text><polygon fill="#A80036" points="157,105.8594,167,109.8594,157,113.8594,161,109.8594" style="stroke: #A80036; stroke-width: 1.0;"/><line style="stroke: #A80036; stroke-width: 1.0;" x1="3" x2="163" y1="109.8594" y2="109.8594"/><text fill="#000000" font-family="sans-serif" font-size="13" font-weight="bold" lengthAdjust="spacingAndGlyphs" textLength="9" x="10" y="104.7935">1</text><text fill="#000000" font-family="sans-serif" font-size="13" lengthAdjust="spacingAndGlyphs" textLength="127" x="23" y="104.7935">DeleteComponent()</text><path d="M58,122.8594 L58,147.8594 L160,147.8594 L160,132.8594 L150,122.8594 L58,122.8594 " fill="#FF0000" filter="url(#f188krj83hi6wn)" style="stroke: #A80036; stroke-width: 1.0;"/><path d="M150,122.8594 L150,132.8594 L160,132.8594 L150,122.8594 " fill="#FF0000" style="stroke: #A80036; stroke-width: 1.0;"/><text fill="#000000" font-family="sans-serif" font-size="13" lengthAdjust="spacingAndGlyphs" textLength="81" x="64" y="139.9263">by Controller</text><polygon fill="#A80036" points="326,174.125,336,178.125,326,182.125,330,178.125" style="stroke: #A80036; stroke-width: 1.0;"/><line style="stroke: #A80036; stroke-width: 1.0;" x1="179" x2="332" y1="178.125" y2="178.125"/><text fill="#000000" font-family="sans-serif" font-size="13" font-weight="bold" lengthAdjust="spacingAndGlyphs" textLength="9" x="186" y="173.0591">2</text><text fill="#000000" font-family="sans-serif" font-size="13" lengthAdjust="spacingAndGlyphs" textLength="127" x="199" y="173.0591">DeleteComponent()</text><polygon fill="#A80036" points="653,203.2578,663,207.2578,653,211.2578,657,207.2578" style="stroke: #A80036; stroke-width: 1.0;"/><line style="stroke: #A80036; stroke-width: 1.0; stroke-dasharray: 2.0,2.0;" x1="348" x2="659" y1="207.2578" y2="207.2578"/><text fill="#000000" font-family="sans-serif" font-size="13" font-weight="bold" lengthAdjust="spacingAndGlyphs" textLength="9" x="355" y="202.1919">3</text><text fill="#000000" font-family="sans-serif" font-size="13" lengthAdjust="spacingAndGlyphs" textLength="280" x="368" y="202.1919">newDeleteCommand(selectedComponents)</text><rect fill="#FEFECE" filter="url(#f188krj83hi6wn)" height="30.2969" style="stroke: #A80036; stroke-width: 1.5;" width="189" x="665" y="186.125"/><text fill="#000000" font-family="sans-serif" font-size="14" lengthAdjust="spacingAndGlyphs" textLength="175" x="672" y="206.1201">delCmd:DeleteCommand</text><polygon fill="#A80036" points="927,248.5547,937,252.5547,927,256.5547,931,252.5547" style="stroke: #A80036; stroke-width: 1.0;"/><line style="stroke: #A80036; stroke-width: 1.0;" x1="348" x2="933" y1="252.5547" y2="252.5547"/><text fill="#000000" font-family="sans-serif" font-size="13" font-weight="bold" lengthAdjust="spacingAndGlyphs" textLength="9" x="355" y="247.4888">4</text><text fill="#000000" font-family="sans-serif" font-size="13" lengthAdjust="spacingAndGlyphs" textLength="177" x="368" y="247.4888">ExecuteCommand(delCmd)</text><polygon fill="#A80036" points="777.5,277.6875,767.5,281.6875,777.5,285.6875,773.5,281.6875" style="stroke: #A80036; stroke-width: 1.0;"/><line style="stroke: #A80036; stroke-width: 1.0;" x1="771.5" x2="938" y1="281.6875" y2="281.6875"/><text fill="#000000" font-family="sans-serif" font-size="13" font-weight="bold" lengthAdjust="spacingAndGlyphs" textLength="9" x="783.5" y="276.6216">5</text><text fill="#000000" font-family="sans-serif" font-size="13" lengthAdjust="spacingAndGlyphs" textLength="61" x="796.5" y="276.6216">Execute()</text><polygon fill="#A80036" points="1069.5,306.8203,1079.5,310.8203,1069.5,314.8203,1073.5,310.8203" style="stroke: #A80036; stroke-width: 1.0;"/><line style="stroke: #A80036; stroke-width: 1.0;" x1="766.5" x2="1075.5" y1="310.8203" y2="310.8203"/><text fill="#000000" font-family="sans-serif" font-size="13" font-weight="bold" lengthAdjust="spacingAndGlyphs" textLength="9" x="773.5" y="305.7544">6</text><text fill="#000000" font-family="sans-serif" font-size="13" lengthAdjust="spacingAndGlyphs" textLength="127" x="786.5" y="305.7544">DeleteComponent()</text><line style="stroke: #A80036; stroke-width: 1.0;" x1="1091.5" x2="1138.5" y1="334.9531" y2="334.9531"/><line style="stroke: #A80036; stroke-width: 1.0;" x1="1138.5" x2="1138.5" y1="334.9531" y2="347.9531"/><line style="stroke: #A80036; stroke-width: 1.0;" x1="1097.5" x2="1138.5" y1="347.9531" y2="347.9531"/><polygon fill="#A80036" points="1107.5,343.9531,1097.5,347.9531,1107.5,351.9531,1103.5,347.9531" style="stroke: #A80036; stroke-width: 1.0;"/><text fill="#000000" font-family="sans-serif" font-size="13" font-weight="bold" lengthAdjust="spacingAndGlyphs" textLength="9" x="1103.5" y="329.8872">7</text><text fill="#000000" font-family="sans-serif" font-size="13" lengthAdjust="spacingAndGlyphs" textLength="302" x="1116.5" y="329.8872">removeComponents = getGroupComponents()</text><line style="stroke: #A80036; stroke-width: 1.0; stroke-dasharray: 2.0,2.0;" x1="1096.5" x2="1138.5" y1="393.1523" y2="393.1523"/><line style="stroke: #A80036; stroke-width: 1.0; stroke-dasharray: 2.0,2.0;" x1="1138.5" x2="1138.5" y1="393.1523" y2="406.1523"/><line style="stroke: #A80036; stroke-width: 1.0; stroke-dasharray: 2.0,2.0;" x1="1091.5" x2="1138.5" y1="406.1523" y2="406.1523"/><polygon fill="#A80036" points="1101.5,402.1523,1091.5,406.1523,1101.5,410.1523,1097.5,406.1523" style="stroke: #A80036; stroke-width: 1.0;"/><text fill="#000000" font-family="sans-serif" font-size="13" font-weight="bold" lengthAdjust="spacingAndGlyphs" textLength="9" x="1103.5" y="388.0864">8</text><text fill="#000000" font-family="sans-serif" font-size="13" lengthAdjust="spacingAndGlyphs" textLength="0" x="1120.5" y="388.0864"/><path d="M1146,365.9531 L1146,405.9531 L1637,405.9531 L1637,375.9531 L1627,365.9531 L1146,365.9531 " fill="#FBFB77" filter="url(#f188krj83hi6wn)" style="stroke: #A80036; stroke-width: 1.0;"/><path d="M1627,365.9531 L1627,375.9531 L1637,375.9531 L1627,365.9531 " fill="#FBFB77" style="stroke: #A80036; stroke-width: 1.0;"/><text fill="#000000" font-family="sans-serif" font-size="13" lengthAdjust="spacingAndGlyphs" textLength="470" x="1152" y="383.02">":Components": getGroupComponents() return gadgets and associations.</text><text fill="#000000" font-family="sans-serif" font-size="13" lengthAdjust="spacingAndGlyphs" textLength="344" x="1152" y="398.1528">As for every association, its parents are also included.</text><path d="M1020,422.2188 L1097,422.2188 L1097,429.2188 L1087,439.2188 L1020,439.2188 L1020,422.2188 " fill="#FFD700" style="stroke: #000000; stroke-width: 1.0;"/><rect fill="none" height="140.5313" style="stroke: #000000; stroke-width: 2.0;" width="325" x="1020" y="422.2188"/><text fill="#000000" font-family="sans-serif" font-size="13" font-weight="bold" lengthAdjust="spacingAndGlyphs" textLength="32" x="1035" y="435.2856">loop</text><text fill="#000000" font-family="sans-serif" font-size="11" font-weight="bold" lengthAdjust="spacingAndGlyphs" textLength="228" x="1112" y="434.4292">[component in removeComponents]</text><line style="stroke: #A80036; stroke-width: 1.0;" x1="1091.5" x2="1138.5" y1="455.4844" y2="455.4844"/><line style="stroke: #A80036; stroke-width: 1.0;" x1="1138.5" x2="1138.5" y1="455.4844" y2="468.4844"/><line style="stroke: #A80036; stroke-width: 1.0;" x1="1097.5" x2="1138.5" y1="468.4844" y2="468.4844"/><polygon fill="#A80036" points="1107.5,464.4844,1097.5,468.4844,1107.5,472.4844,1103.5,468.4844" style="stroke: #A80036; stroke-width: 1.0;"/><text fill="#000000" font-family="sans-serif" font-size="13" font-weight="bold" lengthAdjust="spacingAndGlyphs" textLength="9" x="1103.5" y="450.4185">9</text><text fill="#000000" font-family="sans-serif" font-size="13" lengthAdjust="spacingAndGlyphs" textLength="123" x="1116.5" y="450.4185">delete(component)</text><path d="M1101,486.4844 L1101,511.4844 L1290,511.4844 L1290,496.4844 L1280,486.4844 L1101,486.4844 " fill="#FBFB77" filter="url(#f188krj83hi6wn)" style="stroke: #A80036; stroke-width: 1.0;"/><path d="M1280,486.4844 L1280,496.4844 L1290,496.4844 L1280,486.4844 " fill="#FBFB77" style="stroke: #A80036; stroke-width: 1.0;"/><text fill="#000000" font-family="sans-serif" font-size="13" lengthAdjust="spacingAndGlyphs" textLength="168" x="1107" y="503.5513">delete is a built-in function</text><line style="stroke: #A80036; stroke-width: 1.0; stroke-dasharray: 2.0,2.0;" x1="1096.5" x2="1138.5" y1="546.75" y2="546.75"/><line style="stroke: #A80036; stroke-width: 1.0; stroke-dasharray: 2.0,2.0;" x1="1138.5" x2="1138.5" y1="546.75" y2="559.75"/><line style="stroke: #A80036; stroke-width: 1.0; stroke-dasharray: 2.0,2.0;" x1="1091.5" x2="1138.5" y1="559.75" y2="559.75"/><polygon fill="#A80036" points="1101.5,555.75,1091.5,559.75,1101.5,563.75,1097.5,559.75" style="stroke: #A80036; stroke-width: 1.0;"/><text fill="#000000" font-family="sans-serif" font-size="13" font-weight="bold" lengthAdjust="spacingAndGlyphs" textLength="18" x="1103.5" y="541.6841">10</text><text fill="#000000" font-family="sans-serif" font-size="13" lengthAdjust="spacingAndGlyphs" textLength="0" x="1129.5" y="541.6841"/><polygon fill="#A80036" points="777.5,586.8828,767.5,590.8828,777.5,594.8828,773.5,590.8828" style="stroke: #A80036; stroke-width: 1.0;"/><line style="stroke: #A80036; stroke-width: 1.0; stroke-dasharray: 2.0,2.0;" x1="771.5" x2="1085.5" y1="590.8828" y2="590.8828"/><text fill="#000000" font-family="sans-serif" font-size="13" font-weight="bold" lengthAdjust="spacingAndGlyphs" textLength="18" x="783.5" y="585.8169">11</text><text fill="#000000" font-family="sans-serif" font-size="13" lengthAdjust="spacingAndGlyphs" textLength="0" x="809.5" y="585.8169"/><polygon fill="#A80036" points="927,616.0156,937,620.0156,927,624.0156,931,620.0156" style="stroke: #A80036; stroke-width: 1.0;"/><line style="stroke: #A80036; stroke-width: 1.0; stroke-dasharray: 2.0,2.0;" x1="761.5" x2="933" y1="620.0156" y2="620.0156"/><text fill="#000000" font-family="sans-serif" font-size="13" font-weight="bold" lengthAdjust="spacingAndGlyphs" textLength="18" x="768.5" y="614.9497">12</text><text fill="#000000" font-family="sans-serif" font-size="13" lengthAdjust="spacingAndGlyphs" textLength="0" x="794.5" y="614.9497"/><polygon fill="#A80036" points="359,645.1484,349,649.1484,359,653.1484,355,649.1484" style="stroke: #A80036; stroke-width: 1.0;"/><line style="stroke: #A80036; stroke-width: 1.0; stroke-dasharray: 2.0,2.0;" x1="353" x2="943" y1="649.1484" y2="649.1484"/><text fill="#000000" font-family="sans-serif" font-size="13" font-weight="bold" lengthAdjust="spacingAndGlyphs" textLength="18" x="365" y="644.0825">13</text><text fill="#000000" font-family="sans-serif" font-size="13" lengthAdjust="spacingAndGlyphs" textLength="0" x="391" y="644.0825"/><polygon fill="#A80036" points="190,674.2813,180,678.2813,190,682.2813,186,678.2813" style="stroke: #A80036; stroke-width: 1.0;"/><line style="stroke: #A80036; stroke-width: 1.0; stroke-dasharray: 2.0,2.0;" x1="184" x2="342" y1="678.2813" y2="678.2813"/><text fill="#000000" font-family="sans-serif" font-size="13" font-weight="bold" lengthAdjust="spacingAndGlyphs" textLength="18" x="196" y="673.2153">14</text><text fill="#000000" font-family="sans-serif" font-size="13" lengthAdjust="spacingAndGlyphs" textLength="0" x="222" y="673.2153"/><polygon fill="#A80036" points="14,703.4141,4,707.4141,14,711.4141,10,707.4141" style="stroke: #A80036; stroke-width: 1.0;"/><line style="stroke: #A80036; stroke-width: 1.0; stroke-dasharray: 2.0,2.0;" x1="8" x2="173" y1="707.4141" y2="707.4141"/><text fill="#000000" font-family="sans-serif" font-size="13" font-weight="bold" lengthAdjust="spacingAndGlyphs" textLength="18" x="20" y="702.3481">15</text><text fill="#000000" font-family="sans-serif" font-size="13" lengthAdjust="spacingAndGlyphs" textLength="0" x="46" y="702.3481"/><!--MD5=[2cf92ce582b826444bbeefe2ad9e01ef]
@startuml deleteComponent
autonumber
autoactivate on
group#gold #white deleteComponent
    -> ":UMLProject": DeleteComponent()
    note left of ":UMLProject" #red: by Controller
        ":UMLProject" -> "currentDiagram\n:*UMLDiagram": DeleteComponent()
            "currentDiagram\n:*UMLDiagram" - -> "delCmd:DeleteCommand" ** : newDeleteCommand(selectedComponents)
            "currentDiagram\n:*UMLDiagram" -> ":commandManager" : ExecuteCommand(delCmd)
                ":commandManager" -> "delCmd:DeleteCommand" : Execute()
                    "delCmd:DeleteCommand" -> ":Components": DeleteComponent()

                    ":Components" -> ":Components": removeComponents = getGroupComponents()
                    return
                    note right
                    ":Components": getGroupComponents() return gadgets and associations.
                    As for every association, its parents are also included.
                    end note
                    loop#gold #white component in removeComponents
                        ":Components" -> ":Components": delete(component)
                        note right of ":Components": delete is a built-in function
                        return
                    end
                    return
                return
            return
        return
    return
end deleteComponent
@enduml

PlantUML version 1.2020.02(Sun Mar 01 10:22:07 UTC 2020)
(GPL source distribution)
Java Runtime: OpenJDK Runtime Environment
JVM: OpenJDK 64-Bit Server VM
Java Version: 21.0.7+6-Ubuntu-0ubuntu124.04
Operating System: Linux
Default Encoding: UTF-8
Language: en
Country: null
--></g></svg>
